<svg width="439" height="27" viewBox="0 0 439 27" fill="none" xmlns="http://www.w3.org/2000/svg">
<path d="M11.2718 6.61768L9.71338 8.17282L14.7755 13.2353L9.71338 18.2978L11.2718 19.853L17.9034 13.2353L11.2718 6.61768Z" fill="white"/>
<path d="M10.5905 10.4227L9.72474 9.55878L6.04053 13.2352L9.72474 16.9117L10.5905 16.0477L7.77825 13.2352L10.5905 10.4227Z" fill="white"/>
<path d="M38.8184 16.6465L40.5176 9.46875H41.4668L41.6836 10.6641L39.873 18H38.8535L38.8184 16.6465ZM37.9453 9.46875L39.3516 16.6465L39.2344 18H38.0977L36.2051 9.46875H37.9453ZM43.1777 16.6172L44.5664 9.46875H46.3066L44.4199 18H43.2832L43.1777 16.6172ZM42 9.46875L43.7109 16.6758L43.6641 18H42.6445L40.8223 10.6582L41.0566 9.46875H42ZM55.4512 12.9434V14.3145H50.998V12.9434H55.4512ZM51.5195 9.46875V18H49.7617V9.46875H51.5195ZM56.7051 9.46875V18H54.9531V9.46875H56.7051ZM67.7422 13.5352V13.9395C67.7422 14.5879 67.6543 15.1699 67.4785 15.6855C67.3027 16.2012 67.0547 16.6406 66.7344 17.0039C66.4141 17.3633 66.0312 17.6387 65.5859 17.8301C65.1445 18.0215 64.6543 18.1172 64.1152 18.1172C63.5801 18.1172 63.0898 18.0215 62.6445 17.8301C62.2031 17.6387 61.8203 17.3633 61.4961 17.0039C61.1719 16.6406 60.9199 16.2012 60.7402 15.6855C60.5645 15.1699 60.4766 14.5879 60.4766 13.9395V13.5352C60.4766 12.8828 60.5645 12.3008 60.7402 11.7891C60.916 11.2734 61.1641 10.834 61.4844 10.4707C61.8086 10.1074 62.1914 9.83008 62.6328 9.63867C63.0781 9.44727 63.5684 9.35156 64.1035 9.35156C64.6426 9.35156 65.1328 9.44727 65.5742 9.63867C66.0195 9.83008 66.4023 10.1074 66.7227 10.4707C67.0469 10.834 67.2969 11.2734 67.4727 11.7891C67.6523 12.3008 67.7422 12.8828 67.7422 13.5352ZM65.9668 13.9395V13.5234C65.9668 13.0703 65.9258 12.6719 65.8438 12.3281C65.7617 11.9844 65.6406 11.6953 65.4805 11.4609C65.3203 11.2266 65.125 11.0508 64.8945 10.9336C64.6641 10.8125 64.4004 10.752 64.1035 10.752C63.8066 10.752 63.543 10.8125 63.3125 10.9336C63.0859 11.0508 62.8926 11.2266 62.7324 11.4609C62.5762 11.6953 62.457 11.9844 62.375 12.3281C62.293 12.6719 62.252 13.0703 62.252 13.5234V13.9395C62.252 14.3887 62.293 14.7871 62.375 15.1348C62.457 15.4785 62.5781 15.7695 62.7383 16.0078C62.8984 16.2422 63.0938 16.4199 63.3242 16.541C63.5547 16.6621 63.8184 16.7227 64.1152 16.7227C64.4121 16.7227 64.6758 16.6621 64.9062 16.541C65.1367 16.4199 65.3301 16.2422 65.4863 16.0078C65.6426 15.7695 65.7617 15.4785 65.8438 15.1348C65.9258 14.7871 65.9668 14.3887 65.9668 13.9395ZM79.0527 16.6465L80.752 9.46875H81.7012L81.918 10.6641L80.1074 18H79.0879L79.0527 16.6465ZM78.1797 9.46875L79.5859 16.6465L79.4688 18H78.332L76.4395 9.46875H78.1797ZM83.4121 16.6172L84.8008 9.46875H86.541L84.6543 18H83.5176L83.4121 16.6172ZM82.2344 9.46875L83.9453 16.6758L83.8984 18H82.8789L81.0566 10.6582L81.291 9.46875H82.2344ZM95.7207 16.6289V18H91.1797V16.6289H95.7207ZM91.7539 9.46875V18H89.9961V9.46875H91.7539ZM95.1289 12.9434V14.2793H91.1797V12.9434H95.1289ZM95.7148 9.46875V10.8457H91.1797V9.46875H95.7148ZM108.203 10.9277L105.883 18H104.014L107.184 9.46875H108.373L108.203 10.9277ZM110.131 18L107.805 10.9277L107.617 9.46875H108.818L112.006 18H110.131ZM110.025 14.8242V16.2012H105.52V14.8242H110.025ZM115.297 9.46875H118.479C119.131 9.46875 119.691 9.56641 120.16 9.76172C120.633 9.95703 120.996 10.2461 121.25 10.6289C121.504 11.0117 121.631 11.4824 121.631 12.041C121.631 12.498 121.553 12.8906 121.396 13.2188C121.244 13.543 121.027 13.8145 120.746 14.0332C120.469 14.248 120.143 14.4199 119.768 14.5488L119.211 14.8418H116.445L116.434 13.4707H118.49C118.799 13.4707 119.055 13.416 119.258 13.3066C119.461 13.1973 119.613 13.0449 119.715 12.8496C119.82 12.6543 119.873 12.4277 119.873 12.1699C119.873 11.8965 119.822 11.6602 119.721 11.4609C119.619 11.2617 119.465 11.1094 119.258 11.0039C119.051 10.8984 118.791 10.8457 118.479 10.8457H117.055V18H115.297V9.46875ZM120.066 18L118.121 14.1973L119.979 14.1855L121.947 17.918V18H120.066ZM131.209 16.6289V18H126.668V16.6289H131.209ZM127.242 9.46875V18H125.484V9.46875H127.242ZM130.617 12.9434V14.2793H126.668V12.9434H130.617ZM131.203 9.46875V10.8457H126.668V9.46875H131.203Z" fill="#F5F5F5"/>
</svg>
